<svg width="500" height="500" viewBox="0 0 500 500" fill="none" xmlns="http://www.w3.org/2000/svg">
<g clip-path="url(#clip0_170_2)">
<path d="M249.5 46C136.561 46 45 137.55 45 250.5C45 363.439 136.561 455 249.5 455C362.439 455 454 363.439 454 250.5C454 137.561 362.439 46 249.5 46ZM418.914 232.073C403.87 225.275 388.792 219.814 373.836 215.47C373.859 214.995 373.902 214.508 373.902 214.021C373.902 199.917 362.462 188.465 348.345 188.465C337.413 188.465 328.106 195.34 324.457 205.002C307.833 202.68 291.561 201.564 275.864 201.398C275.798 198.447 275.809 195.561 275.699 192.588C275.179 178.14 274.106 164.245 272.714 151.168C284.453 148.836 293.285 138.5 293.285 126.087C293.285 111.982 281.844 100.53 267.728 100.53C266.921 100.53 266.115 100.574 265.318 100.662C263.937 93.2008 262.533 86.4468 261.239 80.5329C343.758 86.1594 410.138 150.472 418.914 232.073ZM249.5 80.0796C249.876 80.0796 250.24 80.1129 250.639 80.1129C252.12 86.8005 253.756 94.7705 255.392 103.713C247.521 108.069 242.182 116.459 242.182 126.087C242.182 138.301 250.75 148.505 262.212 151.035C263.461 162.786 264.456 175.255 265.02 188.233C233.914 146.791 194.882 121.157 149.383 112.623C177.483 92.1728 212.071 80.0796 249.5 80.0796ZM138.507 121.245C188.658 127.866 230.089 154.761 262.333 201.486C231.88 202.15 203.891 206.096 180.069 211.114C172.973 212.607 166.13 214.221 159.509 215.901C155.175 207.92 146.753 202.503 137.036 202.503C122.92 202.503 111.468 213.955 111.468 228.071C111.468 228.933 111.512 229.774 111.612 230.603C98.8333 235.234 87.9339 239.722 79.2675 243.58C81.213 194.688 103.774 151.091 138.507 121.245ZM79.2012 254.955C88.1661 250.887 100.193 245.813 114.751 240.585C119.128 248.356 127.452 253.639 137.036 253.639C151.152 253.639 162.593 242.198 162.593 228.083C162.593 227.375 162.549 226.668 162.493 225.993C192.66 218.355 227.812 212.419 265.539 211.789C265.55 253.076 260.653 297.745 246.074 339.463C244.802 339.264 243.509 339.143 242.171 339.143C228.055 339.143 216.614 350.572 216.614 364.699C216.614 372.526 220.14 379.523 225.679 384.221C219.499 394.9 212.458 405.146 204.432 414.863C133.565 395.452 81.1579 331.493 79.2012 254.955ZM249.5 420.92C237.783 420.92 226.353 419.727 215.31 417.471C222.318 408.595 228.751 399.144 234.555 389.085C236.965 389.825 239.507 390.234 242.16 390.234C256.276 390.234 267.717 378.782 267.717 364.677C267.717 355.503 262.875 347.477 255.602 342.967C268.015 307.716 274.825 267.512 275.82 223.175C285.072 239.611 293.417 257.95 300.846 278.234C301.597 280.291 302.316 282.324 303.024 284.381C295.186 288.747 289.869 297.115 289.869 306.721C289.869 320.837 301.31 332.289 315.427 332.289C315.968 332.289 316.51 332.234 317.029 332.201C323.794 360.211 327.465 384.818 329.365 401.023C305.555 413.714 278.373 420.92 249.5 420.92ZM339.016 395.518C336.938 379.036 333.257 355.746 326.911 329.57C335.28 325.358 341.006 316.736 341.006 306.743C341.006 292.638 329.565 281.186 315.448 281.186C314.564 281.186 313.68 281.23 312.807 281.329C312.066 279.218 311.314 277.096 310.54 274.962C301.996 251.517 292.025 230.47 280.827 211.833C294.578 212.132 308.639 213.193 322.844 215.138C323.43 228.745 334.605 239.611 348.356 239.611C358.404 239.611 367.071 233.797 371.26 225.352C387.421 230.05 403.638 236.107 419.766 243.735C419.854 245.99 419.943 248.234 419.943 250.522C419.92 311.772 387.554 365.484 339.016 395.518Z" fill="black"/>
</g>
<defs>
<clipPath id="clip0_170_2">
<rect width="409" height="409" fill="white" transform="translate(45 46)"/>
</clipPath>
</defs>
</svg>
